:SAMPLES-PER-SECOND 30
:FULLY-SPECIFIED
:DEGREES
256
root  88.3864 40.1155 -18.4306 -122.457 -89.5732 121.208
RightUpLeg  -3.80728 -15.0981 -8.79205
RightLeg  22.2251 -5.42103 -2.64592
RightFoot  -9.63794 -0.123009 3.82579
RightToes  0.000482159 0.542163 -0.142577
Spine  11.3668 -0.257404 -0.56456
Spine1  5.0508 -0.982055 2.81627
HEad  -12.2095 -4.88081 -2.89961
LeftShoulder1  4.38264 -8.44817 -30.6047
LeftArm  -22.4505 18.5659 -10.1185
LeftForeArm  17.4634 -12.1548 -0.713194
LeftHand  -0.25398 0.0180481 5.50724
RightShoulder  2.48491 5.11088 22.6026
RightArm  -21.6547 -13.6204 17.5609
RightForeArm  -8.37674 8.72576 3.93514
RightHand  -1.596 3.98296 -19.9122
LeftUpLeg  -0.714668 7.05365 1.64431
LeftLeg  7.52889 9.10374 -3.8778
LeftFoot  -3.99511 -0.122691 2.28552
LeftToes  1.06247e-005 4.65854e-005 -8.18501e-006
257
root  88.2944 40.1715 -18.1575 -96.7404 -89.7278 95.4012
RightUpLeg  -3.47605 -14.8009 -6.59948
RightLeg  22.1232 -7.35867 -3.49031
RightFoot  -11.0302 -0.0837941 3.67292
RightToes  0.000482159 0.542163 -0.142577
Spine  10.2685 -0.235149 -0.940511
Spine1  4.68622 -0.995771 2.92293
HEad  -10.736 -4.93906 -2.84337
LeftShoulder1  3.83938 -7.80524 -27.8284
LeftArm  -22.3444 18.4787 -8.59023
LeftForeArm  16.0559 -11.2705 -0.445282
LeftHand  -0.25398 0.0180481 5.50724
RightShoulder  2.14777 4.44089 20.6707
RightArm  -21.5946 -13.2045 15.3527
RightForeArm  -9.32067 8.26924 3.86804
RightHand  -1.65942 4.23748 -20.1551
LeftUpLeg  0.291236 6.11073 1.50551
LeftLeg  5.93107 9.91597 -4.62832
LeftFoot  -3.57015 -0.178806 2.95092
LeftToes  1.06247e-005 4.65854e-005 -8.18501e-006
258
root  88.2063 40.1934 -17.9288 -63.9996 -89.5605 62.6973
RightUpLeg  -2.90554 -15.566 -4.89214
RightLeg  20.7953 -6.90712 -3.12506
RightFoot  -12.47 -0.0414927 4.353
RightToes  0.000482159 0.542163 -0.142577
Spine  8.89441 -0.218349 -1.44132
Spine1  4.69106 -0.993582 2.94104
HEad  -9.49648 -4.84702 -2.73613
LeftShoulder1  3.31529 -7.13187 -24.9427
LeftArm  -22.6136 18.2747 -7.36226
LeftForeArm  14.4595 -10.7297 -0.202251
LeftHand  -0.25398 0.0180481 5.50724
RightShoulder  1.80672 3.68677 18.6146
RightArm  -21.9137 -12.6316 13.4325
RightForeArm  -9.99114 7.84152 3.72044
RightHand  -1.79832 4.92901 -20.3901
LeftUpLeg  0.95148 5.6626 1.12533
LeftLeg  4.76045 10.2459 -5.12627
LeftFoot  -3.33911 -0.210958 3.3048
LeftToes  1.06247e-005 4.65854e-005 -8.18501e-006
259
root  88.1266 40.1852 -17.7211 -57.5126 -89.2598 56.249
RightUpLeg  -2.0877 -15.6176 -3.62874
RightLeg  18.245 -4.15199 -1.52004
RightFoot  -13.0187 -0.0194378 4.77231
RightToes  0.000482159 0.542163 -0.142577
Spine  7.55648 -0.266759 -1.68127
Spine1  4.79822 -0.954266 2.6311
HEad  -8.44403 -4.58554 -2.70453
LeftShoulder1  2.81391 -6.37879 -22.0992
LeftArm  -23.1035 17.9762 -6.37614
LeftForeArm  13.2942 -10.7042 -0.0449288
LeftHand  -0.25398 0.0180481 5.50724
RightShoulder  1.47054 2.83372 16.5305
RightArm  -22.4132 -11.9194 11.8843
RightForeArm  -11.191 7.47694 3.59604
RightHand  -1.93827 5.51731 -20.7919
LeftUpLeg  1.39718 5.39267 0.630902
LeftLeg  4.03736 10.2236 -5.42461
LeftFoot  -3.32267 -0.218747 3.40401
LeftToes  1.06247e-005 4.65854e-005 -8.18501e-006
260
root  88.0574 40.1626 -17.5229 -62.9563 -88.9926 61.5187
RightUpLeg  -1.20197 -11.9949 -2.71155
RightLeg  15.4006 -2.45547 0.0542291
RightFoot  -11.9104 -0.0599792 3.23577
RightToes  0.000482159 0.542163 -0.142577
Spine  6.80583 -0.286702 -1.6385
Spine1  4.48556 -0.822715 2.09573
HEad  -7.47454 -4.2202 -2.93047
LeftShoulder1  2.3899 -5.61016 -19.6999
LeftArm  -23.6863 17.6226 -5.42217
LeftForeArm  12.9177 -11.0811 0.0432002
LeftHand  -0.25398 0.0180481 5.50724
RightShoulder  1.18535 2.02961 14.5845
RightArm  -22.565 -11.1217 10.3697
RightForeArm  -12.9339 7.10586 3.60213
RightHand  -2.07465 5.90191 -21.4764
LeftUpLeg  1.94288 5.12845 0.0780736
LeftLeg  3.58018 10.2977 -5.6046
LeftFoot  -3.44297 -0.225911 3.57042
LeftToes  1.06247e-005 4.65854e-005 -8.18501e-006
261
root  87.9987 40.1381 -17.3244 -79.3045 -88.6754 77.5271
RightUpLeg  -0.566007 -8.03396 -2.30596
RightLeg  13.5114 -1.60443 0.497371
RightFoot  -10.207 -0.0704783 0.0671573
RightToes  0.000482159 0.542163 -0.142577
Spine  6.53567 -0.18522 -1.55194
Spine1  3.81396 -0.571163 1.52916
HEad  -6.48353 -3.76927 -3.42274
LeftShoulder1  2.08664 -4.97815 -17.9494
LeftArm  -24.2947 17.2733 -4.39249
LeftForeArm  13.0818 -11.5566 0.117921
LeftHand  -0.25398 0.0180481 5.50724
RightShoulder  0.96437 1.37438 12.762
RightArm  -22.2696 -10.2059 8.79022
RightForeArm  -14.1398 6.57778 3.67597
RightHand  -2.29469 6.58615 -22.3724
LeftUpLeg  2.6513 4.72526 -0.718175
LeftLeg  3.09212 10.9148 -5.64097
LeftFoot  -3.50737 -0.245405 3.89222
LeftToes  1.06247e-005 4.65854e-005 -8.18501e-006
262
root  87.9438 40.1178 -17.1142 -93.5529 -88.2237 91.4674
RightUpLeg  -0.0261777 -7.35105 -2.9247
RightLeg  12.7944 -0.541415 0.646076
RightFoot  -9.46833 -0.028614 -2.28314
RightToes  0.000482159 0.542163 -0.142577
Spine  6.00334 -0.0852868 -1.36974
Spine1  3.5986 -0.32003 0.935895
HEad  -5.4482 -3.1113 -4.03861
LeftShoulder1  1.85464 -4.43995 -16.5794
LeftArm  -24.9591 16.9522 -3.58878
LeftForeArm  13.2152 -11.9115 0.214568
LeftHand  -0.25398 0.0180481 5.50724
RightShoulder  0.78479 0.827513 10.9302
RightArm  -21.9839 -9.03752 7.46912
RightForeArm  -14.2606 5.90066 3.69464
RightHand  -2.65007 7.82872 -23.3833
LeftUpLeg  3.37478 4.12577 -1.7523
LeftLeg  2.41553 11.9194 -5.54256
LeftFoot  -3.41891 -0.270528 4.20287
LeftToes  1.06247e-005 4.65854e-005 -8.18501e-006
263
root  87.8878 40.1149 -16.9015 -97.6782 -87.9644 95.401
RightUpLeg  0.7089 -8.74495 -4.16135
RightLeg  12.2124 0.351312 1.37968
RightFoot  -9.50123 -0.0235841 -2.53757
RightToes  0.000482159 0.542163 -0.142577
Spine  4.8813 -0.159652 -0.863881
Spine1  4.23241 -0.250813 0.415426
HEad  -4.70051 -2.19347 -4.74702
LeftShoulder1  1.61531 -3.78697 -15.2689
LeftArm  -25.6971 16.6235 -3.43719
LeftForeArm  13.0275 -12.0334 0.352685
LeftHand  -0.25398 0.0180481 5.50724
RightShoulder  0.628088 0.303702 9.11928
RightArm  -22.1068 -7.59902 6.63121
RightForeArm  -14.173 5.33086 3.65484
RightHand  -3.15264 9.43641 -24.7471
LeftUpLeg  4.01565 3.55667 -2.58168
LeftLeg  1.62046 12.6737 -5.43017
LeftFoot  -3.25071 -0.295332 4.45149
LeftToes  1.06247e-005 4.65854e-005 -8.18501e-006
264
root  87.8402 40.1369 -16.7182 -94.895 -88.1411 92.521
RightUpLeg  1.57106 -9.44494 -4.88103
RightLeg  11.117 0.617103 2.24647
RightFoot  -9.18976 -0.0227988 -2.09307
RightToes  0.000482159 0.542163 -0.142577
Spine  3.69084 -0.328781 -0.171336
Spine1  4.98865 -0.359431 0.257208
HEad  -4.65539 -1.36765 -5.59302
LeftShoulder1  1.38641 -3.08003 -14.0624
LeftArm  -26.2348 16.235 -3.87936
LeftForeArm  12.5122 -11.7219 0.548642
LeftHand  -0.25398 0.0180481 5.50724
RightShoulder  0.488881 -0.270634 7.57932
RightArm  -22.5496 -6.12872 6.08067
RightForeArm  -14.7026 5.04921 3.62641
RightHand  -3.78951 11.1435 -26.5906
LeftUpLeg  4.4846 3.23601 -2.8673
LeftLeg  0.960406 12.8954 -5.33839
LeftFoot  -3.12242 -0.318389 4.6916
LeftToes  1.06247e-005 4.65854e-005 -8.18501e-006
265
root  87.8151 40.1719 -16.5852 -87.8565 -88.53 85.4503
RightUpLeg  2.18933 -8.78026 -4.73714
RightLeg  9.9403 0.138748 2.56625
RightFoot  -8.3694 0.00385276 -2.31686
RightToes  0.000482159 0.542163 -0.142577
Spine  3.0078 -0.377343 0.312259
Spine1  5.05954 -0.457455 0.5416
HEad  -4.36267 -1.19459 -5.97423
LeftShoulder1  1.25374 -2.69264 -13.1537
LeftArm  -26.1193 15.7916 -4.36447
LeftForeArm  11.5456 -10.723 0.753823
LeftHand  -0.25398 0.0180481 5.50724
RightShoulder  0.372175 -0.874546 6.49741
RightArm  -23.0115 -4.92314 5.53721
RightForeArm  -15.3977 4.83367 3.59102
RightHand  -4.40404 12.6072 -28.3085
LeftUpLeg  4.7232 3.06614 -2.80726
LeftLeg  0.566489 12.8923 -5.18821
LeftFoot  -3.04214 -0.33499 4.86788
LeftToes  1.06247e-005 4.65854e-005 -8.18501e-006
266
root  87.8146 40.1946 -16.4957 -79.4931 -88.784 77.078
RightUpLeg  2.49719 -8.24816 -4.50241
RightLeg  9.27262 -0.39717 2.57227
RightFoot  -7.79152 0.0298489 -2.67096
RightToes  0.000482159 0.542163 -0.142577
Spine  2.74681 -0.287072 0.401076
Spine1  4.6615 -0.444744 0.949836
HEad  -3.63555 -1.50066 -5.73757
LeftShoulder1  1.2311 -2.75618 -12.5299
LeftArm  -25.2936 15.3469 -4.4793
LeftForeArm  10.0066 -9.02701 0.825102
LeftHand  -0.25398 0.0180481 5.50724
RightShoulder  0.296953 -1.30874 5.79215
RightArm  -23.3468 -4.08574 5.02095
RightForeArm  -15.5958 4.34405 3.48444
RightHand  -4.71946 13.3554 -29.0772
LeftUpLeg  4.79422 2.90188 -2.78167
LeftLeg  0.392868 12.935 -5.00617
LeftFoot  -2.99334 -0.342324 4.93531
LeftToes  1.06247e-005 4.65854e-005 -8.18501e-006
267
root  87.8306 40.1963 -16.4332 -73.507 -88.8276 71.0813
RightUpLeg  2.69686 -8.29424 -4.65438
RightLeg  8.95848 -0.616618 2.75223
RightFoot  -7.74857 0.022097 -2.37343
RightToes  0.000482159 0.542163 -0.142577
Spine  2.50533 -0.212604 0.222661
Spine1  4.4781 -0.410272 1.17879
HEad  -3.30792 -1.45808 -4.95957
LeftShoulder1  1.24541 -2.97067 -12.0594
LeftArm  -24.1141 14.9202 -4.33501
LeftForeArm  7.99588 -6.97622 0.717638
LeftHand  -0.25398 0.0180481 5.50724
RightShoulder  0.279544 -1.36768 5.29298
RightArm  -23.4728 -3.57299 4.70653
RightForeArm  -15.6641 3.65019 3.37153
RightHand  -4.6671 13.2477 -28.9241
LeftUpLeg  4.81757 2.83296 -2.83799
LeftLeg  0.306705 12.9105 -4.97935
LeftFoot  -2.96727 -0.3512 5.03914
LeftToes  1.06247e-005 4.65854e-005 -8.18501e-006
